#!OML:ASF H:\Terrain\Patient Classification 1\Animal1\Tuesday\Animal1.ASF
:FULLY-SPECIFIED
:DEGREES
4321
root 12.4841 16.6115 -12.8505 20.2369 2.04774 -0.842592
lowerback 5.0659 2.0455 -0.939823
upperback -1.28191 2.37541 -7.75283
thorax -3.89323 1.11762 -7.82433
lowerneck -8.62195 6.62197 -2.30206
upperneck -7.62786 9.38067 5.79778
head -1.3779 4.77521 2.3362
rclavicle 2.38542e-014 -2.8625e-014
rhumerus -11.75 51.6583 -4.8777
rradius 19.2244
rwrist -3.76701
rhand -21.1772 3.69532
rfingers 7.12502
rthumb 5.20321 -26.2208
lclavicle 2.38542e-014 -2.8625e-014
lhumerus -22.4668 8.6444 16.9978
lradius 20.1843
lwrist -37.5547
lhand -4.53572 69.4913
lfingers 7.12502
lthumb 21.2394 -98.3477
rfemur -39.9766 7.21789 24.5406
rtibia 39.4913
rfoot 3.57157 -27.9733
rtoes -5.8262
lfemur -35.9331 -32.7505 -1.75193
ltibia 22.0045
lfoot -12.2313 7.27669
ltoes -8.63613
4322
root 12.4895 16.6149 -12.8382 19.993 2.46167 -0.827193
lowerback 4.93495 2.02976 -0.821435
upperback -1.34979 2.36995 -7.63954
thorax -3.89024 1.11278 -7.76445
lowerneck -8.50282 6.61778 -2.19985
upperneck -7.38927 9.34813 5.74616
head -1.31064 4.75586 2.30088
rclavicle 1.51076e-014 7.15625e-014
rhumerus -11.3388 51.9643 -4.43719
rradius 19.3863
rwrist -5.08289
rhand -20.8159 3.59097
rfingers 7.12502
rthumb 5.55208 -26.3163
lclavicle 1.51076e-014 7.15625e-014
lhumerus -22.5233 8.17324 17.0347
lradius 20.2976
lwrist -37.4267
lhand -3.9326 68.8954
lfingers 7.12502
lthumb 21.8187 -97.6854
rfemur -39.5793 7.10675 24.5712
rtibia 39.4303
rfoot 2.61611 -28.4706
rtoes -3.2576
lfemur -35.7013 -33.0876 -1.78874
ltibia 21.8721
lfoot -12.1799 7.06909
ltoes -8.13797
4323
root 12.4937 16.6188 -12.822 19.7451 2.72151 -0.637437
lowerback 4.66899 2.05494 -0.939448
upperback -1.33996 2.41334 -7.60267
thorax -3.72993 1.14147 -7.64354
lowerneck -8.5814 6.57984 -2.21267
upperneck -7.15102 9.29143 5.89921
head -1.22684 4.7309 2.36069
rclavicle 1.82882e-014 2.06736e-014
rhumerus -11.0283 53.4371 -4.06171
rradius 19.6389
rwrist -6.83364
rhand -20.6465 3.16479
rfingers 7.12502
rthumb 5.7157 -26.7381
lclavicle 1.82882e-014 2.06736e-014
lhumerus -22.4767 7.89002 17.0693
lradius 20.4437
lwrist -37.2898
lhand -3.70508 68.1768
lfingers 7.12502
lthumb 22.0371 -96.9412
rfemur -39.1537 7.13701 24.3507
rtibia 39.325
rfoot 2.22101 -28.9547
rtoes -2.42126
lfemur -35.2831 -33.3276 -2.15449
ltibia 21.7089
lfoot -11.9567 6.96584
ltoes -8.81027
4324
root 12.4987 16.6275 -12.8001 19.5071 3.04116 -0.628676
lowerback 4.34748 2.073 -0.862922
upperback -1.35945 2.46239 -7.51115
thorax -3.56246 1.1687 -7.57431
lowerneck -8.68698 6.58044 -2.12286
upperneck -6.81082 9.27082 6.03512
head -1.10141 4.7235 2.40045
rclavicle 3.18055e-014 -5.56597e-014
rhumerus -10.7422 54.5553 -3.70421
rradius 19.8486
rwrist -7.73395
rhand -20.2752 2.67886
rfingers 7.12502
rthumb 6.07415 -27.2141
lclavicle 3.18055e-014 -5.56597e-014
lhumerus -22.419 7.30156 17.1084
lradius 20.504
lwrist -36.7656
lhand -3.65615 67.7795
lfingers 7.12502
lthumb 22.0841 -96.5384
rfemur -38.6794 7.12588 24.365
rtibia 39.2365
rfoot 2.10123 -29.2715
rtoes -3.03732
lfemur -34.8017 -33.5754 -2.33473
ltibia 21.5835
lfoot -11.7636 7.10463
ltoes -12.7984
4325
root 12.5001 16.6339 -12.7781 18.9479 3.448 -0.619692
lowerback 4.51944 2.09515 -0.795363
upperback -1.36287 2.49153 -7.39131
thorax -3.66171 1.18113 -7.49472
lowerneck -9.09949 6.57406 -1.89729
upperneck -5.91971 9.19083 6.0814
head -0.734327 4.69548 2.41165
rclavicle 3.02153e-014 -8.11041e-014
rhumerus -10.5166 55.646 -3.34174
rradius 20.0187
rwrist -8.48831
rhand -19.5961 2.72906
rfingers 7.12502
rthumb 6.72973 -27.144
lclavicle 3.02153e-014 -8.11041e-014
lhumerus -22.257 6.64995 17.139
lradius 20.4927
lwrist -36.1799
lhand -3.43626 67.6339
lfingers 7.12502
lthumb 22.2952 -96.3677
rfemur -37.8421 7.0706 24.4638
rtibia 39.173
rfoot 1.46319 -29.6687
rtoes -2.45976
lfemur -34.0194 -33.8673 -2.70946
ltibia 21.4546
lfoot -12.0213 6.92516
ltoes -13.6922
4326
root 12.5105 16.6236 -12.7803 19.1927 3.4793 -0.514605
lowerback 4.06375 2.20613 -0.854344
upperback -1.59665 2.64817 -7.33349
thorax -3.63384 1.25951 -7.39306
lowerneck -9.678 6.48595 -2.00697
upperneck -5.04746 9.03755 6.33292
head -0.369013 4.64186 2.55719
rclavicle -4.6118e-014 2.54444e-014
rhumerus -10.0387 57.7846 -2.63398
rradius 20.3435
rwrist -10.7475
rhand -19.0313 2.78588
rfingers 7.12502
rthumb 7.27489 -27.0691
lclavicle -4.6118e-014 2.54444e-014
lhumerus -22.1097 6.4065 17.2035
lradius 20.5475
lwrist -35.6817
lhand -3.26976 67.2996
lfingers 7.12502
lthumb 22.455 -96.0142
rfemur -38.1144 7.03655 24.2816
rtibia 39.1096
rfoot 1.44146 -29.6994
rtoes -2.54147
lfemur -34.4062 -33.6651 -2.72799
ltibia 21.4097
lfoot -12.1405 6.59581
ltoes -11.904
